<?xml version="1.0" encoding="UTF-8" standalone="no"?>
<svg
   xmlns:dc="http://purl.org/dc/elements/1.1/"
   xmlns:cc="http://creativecommons.org/ns#"
   xmlns:rdf="http://www.w3.org/1999/02/22-rdf-syntax-ns#"
   xmlns:svg="http://www.w3.org/2000/svg"
   xmlns="http://www.w3.org/2000/svg"
   xmlns:sodipodi="http://sodipodi.sourceforge.net/DTD/sodipodi-0.dtd"
   xmlns:inkscape="http://www.inkscape.org/namespaces/inkscape"
   width="752"
   height="692"
   viewbox="0 0 752 692"
   version="1.1"
   id="svg88"
   sodipodi:docname="mima.min.svg"
   inkscape:version="0.92.4 5da689c313, 2019-01-14">
  <metadata
     id="metadata94">
    <rdf:RDF>
      <cc:Work
         rdf:about="">
        <dc:format>image/svg+xml</dc:format>
        <dc:type
           rdf:resource="http://purl.org/dc/dcmitype/StillImage" />
      </cc:Work>
    </rdf:RDF>
  </metadata>
  <defs
     id="defs92" />
  <sodipodi:namedview
     pagecolor="#ffffff"
     bordercolor="#666666"
     borderopacity="1"
     objecttolerance="10"
     gridtolerance="10"
     guidetolerance="10"
     inkscape:pageopacity="0"
     inkscape:pageshadow="2"
     inkscape:window-width="3840"
     inkscape:window-height="2090"
     id="namedview90"
     showgrid="false"
     inkscape:zoom="1.9292162"
     inkscape:cx="321.49128"
     inkscape:cy="296.18651"
     inkscape:window-x="0"
     inkscape:window-y="0"
     inkscape:window-maximized="1"
     inkscape:current-layer="g86" />
  <style
     type="text/css"
     id="style2"><![CDATA[
      rect.active { fill: #aaffaa; }
      rect.inactive { fill: #ffaaaa; }
    ]]></style>
  <g
     class="layer"
     id="g86">
    <title
       id="title4">Mima</title>
    <g
       id="cell-CFDproqTHQgINwi0UDp_-49">
      <path
         d="M 751,314 V 301.35 Q 751,291 740.65,291 H 461.35 Q 451,291 451,301.35 V 314"
         id="svg_32"
         stroke-miterlimit="10"
         inkscape:connector-curvature="0"
         style="fill:#e1d5e7;stroke:#9673a6;stroke-width:2;stroke-miterlimit:10" />
      <path
         d="M 451,314 V 580.65 Q 451,591 461.35,591 h 279.3 Q 751,591 751,580.65 V 314"
         id="svg_33"
         stroke-miterlimit="10"
         inkscape:connector-curvature="0"
         style="fill:none;stroke:#9673a6;stroke-width:2;stroke-miterlimit:10" />
      <text
         font-size="23"
         font-weight="bold"
         id="svg_34"
         x="600"
         y="312.5"
         style="font-weight:bold;font-size:23px;font-family:'Courier New';text-anchor:middle">Memory Unit</text>
    </g>
    <path
       d="m 630.5,381 v 10.5 l -19,-15.5 19,-15.5 V 371 h 21 v -10.5 l 19,15.5 -19,15.5 V 381 Z"
       id="darrow_sir_mem"
       stroke-miterlimit="10"
       inkscape:connector-curvature="0"
       style="fill:#ffffff;stroke:#000000;stroke-miterlimit:10" />
    <rect
       height="30"
       id="cell-R10DWhb0ylvKd9kn0Sop-5"
       rx="4.5"
       ry="4.5"
       width="130"
       x="481"
       y="361"
       style="fill:#ffffff;stroke:#000000;stroke-width:2" />
    <path
       d="m 611.52,460.69 -0.04,-10 39.82,-0.2 -0.05,-10.5 19.07,15.41 -18.93,15.59 -0.05,-10.5 z"
       id="arrow_sar_mem"
       stroke-miterlimit="10"
       inkscape:connector-curvature="0"
       style="fill:#ffffff;stroke:#000000;stroke-miterlimit:10"
       inkscape:label="arrow_sar_mem" />
    <g
       id="cell-R10DWhb0ylvKd9kn0Sop-9">
      <path
         d="m 671,346 h 40 l 20,20 v 180 h -40 l -20,-20 z"
         id="mem_color"
         stroke-miterlimit="10"
         inkscape:connector-curvature="0"
         style="fill:#e1d5e7;stroke:#9673a6;stroke-width:2;stroke-miterlimit:10" />
      <path
         d="m 671,346 h 40 l 20,20 h -40 z"
         id="svg_36"
         inkscape:connector-curvature="0"
         style="fill-opacity:0.05" />
      <path
         d="m 671,346 20,20 v 180 l -20,-20 z"
         id="svg_37"
         inkscape:connector-curvature="0"
         style="fill-opacity:0.1" />
      <path
         d="M 691,546 V 366 l -20,-20 m 20,20 h 40"
         id="svg_38"
         stroke-miterlimit="10"
         inkscape:connector-curvature="0"
         style="fill:none;stroke:#9673a6;stroke-width:2;stroke-miterlimit:10" />
    </g>
    <rect
       height="30"
       id="cell-R10DWhb0ylvKd9kn0Sop-7"
       rx="4.5"
       ry="4.5"
       width="130"
       x="481"
       y="441"
       style="fill:#ffffff;stroke:#000000;stroke-width:2" />
    <path
       style="display:inline;fill:#ffffff;stroke:#000000;stroke-miterlimit:1.41999996"
       inkscape:connector-curvature="0"
       stroke-miterlimit="1.42"
       id="darrow_sir_iobus"
       d="m 574,410.5 h -10.5 l 15.5,-19 15.5,19 H 584 v 5.5 h 52 v 140 h -52 v 55.5 h 10.5 l -15.5,19 -15.5,-19 H 574 V 546 h 52 V 426 h -52 z"
       inkscape:label="darrow_sir_iobus" />
    <g
       id="cell-CFDproqTHQgINwi0UDp_-36">
      <path
         d="M 301.5,24.5 V 11.85 Q 301.5,1.5 291.15,1.5 H 11.85 Q 1.5,1.5 1.5,11.85 V 24.5"
         id="svg_41"
         stroke-miterlimit="10"
         inkscape:connector-curvature="0"
         style="fill:#dae8fc;stroke:#6c8ebf;stroke-width:2;stroke-miterlimit:10" />
      <path
         d="m 1.5,24.5 v 556.65 q 0,10.35 10.35,10.35 h 279.3 q 10.35,0 10.35,-10.35 V 24.5"
         id="svg_42"
         stroke-miterlimit="10"
         inkscape:connector-curvature="0"
         style="fill:none;stroke:#6c8ebf;stroke-width:2;stroke-miterlimit:10" />
      <text
         font-size="23"
         font-weight="bold"
         id="svg_43"
         x="150.5"
         y="23"
         style="font-weight:bold;font-size:23px;font-family:'Courier New';text-anchor:middle">Processing Unit</text>
    </g>
    <path
       d="M 216.5,81 V 71 h 115 V 60.5 l 19,15.5 -19,15.5 V 81 Z"
       id="arrow_one_bus"
       stroke-miterlimit="10"
       inkscape:connector-curvature="0"
       style="fill:#ffffff;stroke:#000000;stroke-miterlimit:10" />
    <rect
       height="30"
       id="cell-CFDproqTHQgINwi0UDp_-4"
       rx="4.5"
       ry="4.5"
       width="130"
       x="86"
       y="61"
       style="fill:#ffffff;stroke:#000000;stroke-width:2" />
    <path
       d="m 235.5,161 v 10.5 l -19,-15.5 19,-15.5 V 151 h 96 v -10.5 l 19,15.5 -19,15.5 V 161 Z"
       id="darrow_acc_bus"
       stroke-miterlimit="10"
       inkscape:connector-curvature="0"
       style="fill:#ffffff;stroke:#000000;stroke-miterlimit:10" />
    <rect
       height="30"
       id="cell-CFDproqTHQgINwi0UDp_-5"
       rx="4.5"
       ry="4.5"
       width="130"
       x="86"
       y="141"
       style="fill:#ffffff;stroke:#000000;stroke-width:2" />
    <path
       d="m 160.5,241 v 10.5 l -19,-15.5 19,-15.5 V 231 h 190 v 10 z"
       id="arrow_bus_x"
       stroke-miterlimit="10"
       inkscape:connector-curvature="0"
       style="fill:#ffffff;stroke:#000000;stroke-miterlimit:10" />
    <path
       d="m 103.5,251.5 h 10 v 110 H 124 l -15.5,19 -15.5,-19 h 10.5 z"
       id="arrow_x_alu"
       stroke-miterlimit="10"
       inkscape:label="#arrow_x_alu"
       inkscape:connector-curvature="0"
       style="fill:#ffffff;stroke:#000000;stroke-miterlimit:10" />
    <rect
       height="30"
       id="cell-CFDproqTHQgINwi0UDp_-8"
       rx="4.5"
       ry="4.5"
       width="130"
       x="11"
       y="221"
       style="fill:#ffffff;stroke:#000000;stroke-width:2" />
    <path
       d="m 295.5,311 v 10.5 l -19,-15.5 19,-15.5 V 301 h 55 v 10 z"
       id="arrow_bus_y"
       stroke-miterlimit="10"
       inkscape:connector-curvature="0"
       style="fill:#ffffff;stroke:#000000;stroke-miterlimit:10" />
    <path
       d="m 173.5,321.46 10,0.08 -0.34,40 10.5,0.09 -15.66,18.87 -15.34,-19.13 10.5,0.09 z"
       id="arrow_y_alu"
       stroke-miterlimit="10"
       inkscape:connector-curvature="0"
       style="fill:#ffffff;stroke:#000000;stroke-miterlimit:10" />
    <rect
       height="30"
       id="cell-CFDproqTHQgINwi0UDp_-10"
       rx="4.5"
       ry="4.5"
       width="130"
       x="146"
       y="291"
       style="fill:#ffffff;stroke:#000000;stroke-width:2" />
    <path
       d="m 206.5,546 v -10 h 125 v -10.5 l 19,15.5 -19,15.5 V 546 Z"
       id="arrow_z_bus"
       stroke-miterlimit="10"
       inkscape:connector-curvature="0"
       style="fill:#ffffff;stroke:#000000;stroke-miterlimit:10" />
    <path
       d="m 146,506.5 h 10.5 l -15.5,19 -15.5,-19 H 136 v -35 h 10 z"
       id="arrow_alu_z"
       stroke-miterlimit="10"
       inkscape:connector-curvature="0"
       style="fill:#ffffff;stroke:#000000;stroke-miterlimit:10" />
    <rect
       height="30"
       id="cell-CFDproqTHQgINwi0UDp_-21"
       rx="4.5"
       ry="4.5"
       width="130"
       x="76"
       y="526"
       style="fill:#ffffff;stroke:#000000;stroke-width:2" />
    <g
       id="cell-CFDproqTHQgINwi0UDp_-37">
      <path
         d="M 751,24 V 11.35 Q 751,1 740.65,1 H 461.35 Q 451,1 451,11.35 V 24"
         id="svg_53"
         stroke-miterlimit="10"
         inkscape:connector-curvature="0"
         style="fill:#fff2cc;stroke:#d6b656;stroke-width:2;stroke-miterlimit:10" />
      <path
         d="M 451,24 V 260.65 Q 451,271 461.35,271 h 279.3 Q 751,271 751,260.65 V 24"
         id="svg_54"
         stroke-miterlimit="10"
         inkscape:connector-curvature="0"
         style="fill:none;stroke:#d6b656;stroke-width:2;stroke-miterlimit:10" />
      <text
         font-size="23"
         font-weight="bold"
         id="svg_55"
         x="600"
         y="22.5"
         style="font-weight:bold;font-size:23px;font-family:'Courier New';text-anchor:middle">Control Unit</text>
    </g>
    <rect
       height="30"
       id="cell-CFDproqTHQgINwi0UDp_-38"
       rx="4.5"
       ry="4.5"
       width="130"
       x="481"
       y="68.5"
       style="fill:#ffffff;stroke:#000000;stroke-width:2" />
    <rect
       height="30"
       id="cell-CFDproqTHQgINwi0UDp_-40"
       rx="4.5"
       ry="4.5"
       width="130"
       x="481"
       y="148.5"
       style="fill:#ffffff;stroke:#000000;stroke-width:2" />
    <g
       id="cell-CFDproqTHQgINwi0UDp_-42">
      <rect
         height="30"
         id="svg_56"
         rx="4.5"
         ry="4.5"
         width="130"
         x="481"
         y="213.5"
         style="fill:#ffffff;stroke:#000000;stroke-width:2" />
    </g>
    <path
       d="m 461.49,158.53 -0.01,-10.5 19.02,15.47 -18.98,15.53 -0.01,-10.5 -31,0.04 0.01,10.5 -19.02,-15.48 18.98,-15.52 0.01,10.5 z"
       id="darrow_ir_bus"
       stroke-miterlimit="10"
       inkscape:connector-curvature="0"
       style="fill:#ffffff;stroke:#000000;stroke-miterlimit:10" />
    <path
       d="M 461.5,223.5 V 213 l 19,15.5 -19,15.5 v -10.5 h -31 V 244 l -19,-15.5 19,-15.5 v 10.5 z"
       id="darrow_iar_bus"
       stroke-miterlimit="10"
       inkscape:connector-curvature="0"
       style="fill:#ffffff;stroke:#000000;stroke-miterlimit:10"
       inkscape:label="darrow_iar_bus" />
    <path
       d="m 461.5,371 v -10.5 l 19,15.5 -19,15.5 V 381 h -31 v 10.5 l -19,-15.5 19,-15.5 V 371 Z"
       id="darrow_sir_bus"
       stroke-miterlimit="10"
       inkscape:connector-curvature="0"
       style="fill:#ffffff;stroke:#000000;stroke-miterlimit:10"
       inkscape:label="darrow_sir_bus" />
    <path
       d="m 461.5,451 v -10.5 l 19,15.5 -19,15.5 V 461 h -31 v 10.5 l -19,-15.5 19,-15.5 V 451 Z"
       id="darrow_sar_bus"
       stroke-miterlimit="10"
       inkscape:connector-curvature="0"
       style="fill:#ffffff;stroke:#000000;stroke-miterlimit:10"
       inkscape:label="darrow_sar_bus" />
    <path
       d="m 508.5,471.51 10,-0.02 0.28,140 10.5,-0.02 -15.46,19.03 -15.54,-18.97 10.5,-0.02 z"
       id="arrow_sar_iobus"
       stroke-miterlimit="10"
       inkscape:connector-curvature="0"
       style="fill:#ffffff;stroke:#000000;stroke-miterlimit:10"
       inkscape:label="arrow_sar_iobus" />
    <rect
       height="542"
       id="bus"
       stroke-linecap="null"
       stroke-linejoin="null"
       stroke-width="null"
       width="60"
       x="351"
       y="36"
       style="fill:#ffffff;stroke:#000000;stroke-dasharray:none" />
    <text
       font-size="39"
       id="svg_72"
       stroke-linecap="null"
       stroke-linejoin="null"
       transform="matrix(0,-1,0.927806,0,-225.849,626.489)"
       x="321.12021"
       xml:space="preserve"
       y="667.35846"
       style="font-size:39px;font-family:Monospace;text-anchor:middle;fill:#000000;stroke:#000000;stroke-width:0;stroke-dasharray:none">Bus</text>
    <text
       font-size="24"
       id="svg_73"
       stroke-linecap="null"
       stroke-linejoin="null"
       transform="matrix(1,0,0,0.927806,-45.0072,-219.856)"
       x="131.12021"
       xml:space="preserve"
       y="794.54022"
       style="font-size:24px;font-family:Monospace;text-anchor:middle;fill:#000000;stroke:#000000;stroke-width:0;stroke-dasharray:none">Z</text>
    <text
       font-size="24"
       id="svg_74"
       stroke-linecap="null"
       stroke-linejoin="null"
       transform="matrix(1,0,0,0.927806,244.001,-385.029)"
       x="-220.87979"
       xml:space="preserve"
       y="642.56879"
       style="font-size:24px;font-family:Monospace;text-anchor:middle;fill:#000000;stroke:#000000;stroke-width:0;stroke-dasharray:none">X</text>
    <text
       font-size="24"
       id="svg_75"
       stroke-linecap="null"
       stroke-linejoin="null"
       transform="matrix(1,0,0,0.927806,378.001,-313.032)"
       x="-220.87979"
       xml:space="preserve"
       y="642.56879"
       style="font-size:24px;font-family:Monospace;text-anchor:middle;fill:#000000;stroke:#000000;stroke-width:0;stroke-dasharray:none">Y</text>
    <text
       font-size="20"
       id="x_text"
       stroke-linecap="null"
       stroke-linejoin="null"
       transform="matrix(1.02491,0,0,1,-0.346439,0)"
       x="74.120209"
       xml:space="preserve"
       y="243.12502"
       style="font-size:20px;font-family:Monospace;text-anchor:middle;fill:#000000;stroke:#000000;stroke-width:0;stroke-dasharray:none">0x00000000</text>
    <text
       font-size="20"
       id="y_text"
       stroke-linecap="null"
       stroke-linejoin="null"
       transform="matrix(1.02491,0,0,1,-0.346439,0)"
       x="206.32771"
       xml:space="preserve"
       y="313.19592"
       style="font-size:20px;font-family:Monospace;text-anchor:middle;fill:#000000;stroke:#000000;stroke-width:0;stroke-dasharray:none">0x00000000</text>
    <text
       font-size="20"
       id="z_text"
       stroke-linecap="null"
       stroke-linejoin="null"
       transform="matrix(1.02491,0,0,1,-0.346439,0)"
       x="137.05333"
       xml:space="preserve"
       y="548.19592"
       style="font-size:20px;font-family:Monospace;text-anchor:middle;fill:#000000;stroke:#000000;stroke-width:0;stroke-dasharray:none">0x00000000</text>
    <text
       font-size="20"
       id="acc_text"
       stroke-linecap="null"
       stroke-linejoin="null"
       transform="matrix(1.02491,0,0,1,-0.346439,0)"
       x="147.78598"
       xml:space="preserve"
       y="162.19592"
       style="font-size:20px;font-family:Monospace;text-anchor:middle;fill:#000000;stroke:#000000;stroke-width:0;stroke-dasharray:none">0x00000000</text>
    <text
       font-size="20"
       id="one_text"
       stroke-linecap="null"
       stroke-linejoin="null"
       transform="matrix(1.02491,0,0,1,-0.346439,0)"
       x="147.78598"
       xml:space="preserve"
       y="83.195923"
       style="font-size:20px;font-family:Monospace;text-anchor:middle;fill:#000000;stroke:#000000;stroke-width:0;stroke-dasharray:none">0x00000001</text>
    <text
       font-size="20"
       id="counter_text"
       stroke-linecap="null"
       stroke-linejoin="null"
       transform="matrix(1.02491,0,0,1,-0.346439,0)"
       x="534.16138"
       xml:space="preserve"
       y="90.195923"
       style="font-size:20px;font-family:Monospace;text-anchor:middle;fill:#000000;stroke:#000000;stroke-width:0;stroke-dasharray:none">00</text>
    <text
       font-size="20"
       id="ir_text"
       stroke-linecap="null"
       stroke-linejoin="null"
       transform="matrix(1.02491,0,0,1,-0.346439,0)"
       x="533.18567"
       xml:space="preserve"
       y="171.19592"
       style="font-size:20px;font-family:Monospace;text-anchor:middle;fill:#000000;stroke:#000000;stroke-width:0;stroke-dasharray:none">0x00000000</text>
    <text
       font-size="20"
       id="iar_text"
       stroke-linecap="null"
       stroke-linejoin="null"
       transform="matrix(1.02491,0,0,1,-0.346439,0)"
       x="534.16138"
       xml:space="preserve"
       y="236.19592"
       style="font-size:20px;font-family:Monospace;text-anchor:middle;fill:#000000;stroke:#000000;stroke-width:0;stroke-dasharray:none">0x00000000</text>
    <text
       font-size="20"
       id="sir_text"
       stroke-linecap="null"
       stroke-linejoin="null"
       transform="matrix(1.02491,0,0,1,-0.346439,0)"
       x="533.18567"
       xml:space="preserve"
       y="383.19592"
       style="font-size:20px;font-family:Monospace;text-anchor:middle;fill:#000000;stroke:#000000;stroke-width:0;stroke-dasharray:none">0x00000000</text>
    <text
       font-size="20"
       id="sar_text"
       stroke-linecap="null"
       stroke-linejoin="null"
       transform="matrix(1.02491,0,0,1,-0.346439,0)"
       x="532.21002"
       xml:space="preserve"
       y="463.95374"
       style="font-size:20px;font-family:Monospace;text-anchor:middle;fill:#000000;stroke:#000000;stroke-width:0;stroke-dasharray:none">0x00000000</text>
    <rect
       height="249.93671"
       id="iobus"
       stroke-linecap="null"
       stroke-linejoin="null"
       transform="rotate(90)"
       width="57.67519"
       x="632.14948"
       y="-671.08655"
       style="fill:#ffffff;stroke:#000000;stroke-width:1.06329668;stroke-dasharray:none" />
    <text
       font-size="39"
       id="svg_92"
       stroke-linecap="null"
       stroke-linejoin="null"
       transform="matrix(1,0,0,0.927806,53.9928,-261.856)"
       x="492.12021"
       xml:space="preserve"
       y="1005.7913"
       style="font-size:39px;font-family:Monospace;text-anchor:middle;fill:#000000;stroke:#000000;stroke-width:0;stroke-dasharray:none">IO Bus</text>
    <text
       font-size="24"
       id="svg_94"
       stroke-linecap="null"
       stroke-linejoin="null"
       transform="matrix(1,0,0,0.927806,654.214,-242.31)"
       x="-544.87982"
       xml:space="preserve"
       y="405.45026"
       style="font-size:24px;font-family:Monospace;text-anchor:middle;fill:#000000;stroke:#000000;stroke-width:0;stroke-dasharray:none">ACC</text>
    <text
       font-size="24"
       id="svg_95"
       stroke-linecap="null"
       stroke-linejoin="null"
       transform="matrix(1,0,0,0.927806,978.206,-22.3043)"
       x="-868.87982"
       xml:space="preserve"
       y="81.567932"
       style="font-size:24px;font-family:Monospace;text-anchor:middle;fill:#000000;stroke:#000000;stroke-width:0;stroke-dasharray:none">ONE</text>
    <text
       font-size="24"
       id="svg_96"
       stroke-linecap="null"
       stroke-linejoin="null"
       transform="matrix(1,0,0,0.927806,978.206,-22.3043)"
       x="-444.87979"
       xml:space="preserve"
       y="89.11261"
       style="font-size:24px;font-family:Monospace;text-anchor:middle;fill:#000000;stroke:#000000;stroke-width:0;stroke-dasharray:none">Counter</text>
    <text
       font-size="24"
       id="svg_97"
       stroke-linecap="null"
       stroke-linejoin="null"
       transform="matrix(1,0,0,0.927806,978.206,-22.3043)"
       x="-481.37979"
       xml:space="preserve"
       y="176.41534"
       style="font-size:24px;font-family:Monospace;text-anchor:middle;fill:#000000;stroke:#000000;stroke-width:0;stroke-dasharray:none">IR</text>
    <text
       font-size="24"
       id="svg_98"
       stroke-linecap="null"
       stroke-linejoin="null"
       transform="matrix(1,0,0,0.927806,978.206,-22.3043)"
       x="-473.87979"
       xml:space="preserve"
       y="245.93417"
       style="font-size:24px;font-family:Monospace;text-anchor:middle;fill:#000000;stroke:#000000;stroke-width:0;stroke-dasharray:none">IAR</text>
    <text
       font-size="24"
       id="svg_99"
       stroke-linecap="null"
       stroke-linejoin="null"
       transform="matrix(1,0,0,0.927806,978.206,-22.3043)"
       x="-473.87979"
       xml:space="preserve"
       y="404.37247"
       style="font-size:24px;font-family:Monospace;text-anchor:middle;fill:#000000;stroke:#000000;stroke-width:0;stroke-dasharray:none">SIR</text>
    <text
       font-size="24"
       id="svg_100"
       stroke-linecap="null"
       stroke-linejoin="null"
       transform="matrix(1,0,0,0.927806,978.206,-22.3043)"
       x="-473.87979"
       xml:space="preserve"
       y="491.13626"
       style="font-size:24px;font-family:Monospace;text-anchor:middle;fill:#000000;stroke:#000000;stroke-width:0;stroke-dasharray:none">SAR</text>
    <text
       font-size="24"
       id="mem_text"
       stroke-linecap="null"
       stroke-linejoin="null"
       transform="matrix(0,-1.038177,0.96322688,0,0,0)"
       x="-436.96866"
       xml:space="preserve"
       y="745.45251"
       style="font-size:23.11744499px;font-family:Monospace;text-anchor:middle;fill:#000000;stroke:#000000;stroke-width:0;stroke-dasharray:none"
       inkscape:label="#mem_text">Memory</text>
    <path
       d="m 121,471 h 39 l 39,-90 H 160 L 140.5,419.57143 121,381 H 82"
       id="alu_shape"
       inkscape:connector-curvature="0"
       style="fill:#bfbfbf;stroke:#4c4c4c;stroke-width:0;stroke-linecap:round;stroke-linejoin:round;stroke-dasharray:none" />
    <text
       font-size="24"
       id="alu_text"
       stroke-linecap="null"
       stroke-linejoin="null"
       transform="matrix(1,0,0,0.927806,299.261,-127.55)"
       x="-158.87979"
       xml:space="preserve"
       y="619.93475"
       style="font-size:24px;font-family:Monospace;text-anchor:middle;fill:#000000;stroke:#000000;stroke-width:0;stroke-dasharray:none">ALU</text>
    <rect
       class="active"
       height="30"
       id="run_label"
       rx="4.5"
       ry="4.5"
       width="77"
       x="646"
       y="114"
       style="fill:#aaffaa;stroke:#000000;stroke-width:2" />
    <rect
       class="inactive"
       height="30"
       id="tra_label"
       rx="4.5"
       ry="4.5"
       width="77"
       x="646"
       y="164"
       style="fill:#ffaaaa;stroke:#000000;stroke-width:2" />
    <text
       font-size="20"
       id="svg_47"
       stroke-linecap="null"
       stroke-linejoin="null"
       transform="matrix(1.02491,0,0,1,-0.346439,0)"
       x="667"
       xml:space="preserve"
       y="135.69653"
       style="font-size:20px;font-family:Monospace;text-anchor:middle;fill:#000000;stroke:#000000;stroke-width:0;stroke-dasharray:none">RUN</text>
    <text
       font-size="20"
       id="svg_48"
       stroke-linecap="null"
       stroke-linejoin="null"
       transform="matrix(1.02491,0,0,1,-0.346439,0)"
       x="667"
       xml:space="preserve"
       y="184.69714"
       style="font-size:20px;font-family:Monospace;text-anchor:middle;fill:#000000;stroke:#000000;stroke-width:0;stroke-dasharray:none">TRA</text>
    <path
       d="m 216.5,161 v -10 h 115 v -10.5 l 19,15.5 -19,15.5 V 161 Z"
       id="arrow_acc_bus"
       stroke-miterlimit="10"
       inkscape:connector-curvature="0"
       style="fill:#aaffaa;stroke:#000000;stroke-miterlimit:10" />
    <path
       d="m 350.79098,161 v -10 h -115 v -10.5 l -19,15.5 19,15.5 V 161 Z"
       id="arrow_bus_acc"
       stroke-miterlimit="10"
       inkscape:connector-curvature="0"
       style="fill:#aaffaa;stroke:#000000;stroke-miterlimit:10" />
    <path
       inkscape:connector-curvature="0"
       style="fill:#aaffaa;stroke:#000000;stroke-miterlimit:10"
       d="m 430.49,168.57 v 10.5 l -19,-15.5 19,-15.5 v 10.5 h 48.97378 v 10 z"
       id="arrow_ir_bus"
       stroke-miterlimit="10"
       sodipodi:nodetypes="cccccccc" />
    <path
       inkscape:connector-curvature="0"
       style="fill:#aaffaa;stroke:#000000;stroke-miterlimit:10"
       d="m 461.49,168.53 v 10.5 l 19,-15.5 -19,-15.5 v 10.5 h -48.97378 v 10 z"
       id="arrow_bus_ir"
       stroke-miterlimit="10"
       sodipodi:nodetypes="cccccccc" />
    <path
       inkscape:connector-curvature="0"
       style="fill:#aaffaa;stroke:#000000;stroke-miterlimit:10"
       d="M 430.5,233.5 V 244 l -19,-15.5 19,-15.5 v 10.5 h 48.97378 v 10 z"
       id="arrow_iar_bus"
       stroke-miterlimit="10"
       sodipodi:nodetypes="cccccccc" />
    <path
       inkscape:connector-curvature="0"
       style="fill:#aaffaa;stroke:#000000;stroke-miterlimit:10"
       d="M 461.5,233.5 V 244 l 19,-15.5 -19,-15.5 v 10.5 h -48.97378 v 10 z"
       id="arrow_bus_iar"
       stroke-miterlimit="10"
       sodipodi:nodetypes="cccccccc" />
    <path
       inkscape:connector-curvature="0"
       style="fill:#aaffaa;stroke:#000000;stroke-miterlimit:10"
       d="m 430.5,381 v 10.5 l -19,-15.5 19,-15.5 V 371 h 48.97378 v 10 z"
       id="arrow_sir_bus"
       stroke-miterlimit="10"
       sodipodi:nodetypes="cccccccc" />
    <path
       inkscape:connector-curvature="0"
       style="fill:#aaffaa;stroke:#000000;stroke-miterlimit:10"
       d="m 430.5,461 v 10.5 l -19,-15.5 19,-15.5 V 451 h 48.97378 v 10 z"
       id="arrow_sar_bus"
       stroke-miterlimit="10"
       sodipodi:nodetypes="cccccccc" />
    <path
       inkscape:connector-curvature="0"
       style="fill:#aaffaa;stroke:#000000;stroke-miterlimit:10"
       d="m 461.5,381 v 10.5 l 19,-15.5 -19,-15.5 V 371 h -48.97378 v 10 z"
       id="arrow_bus_sir"
       stroke-miterlimit="10"
       sodipodi:nodetypes="cccccccc" />
    <path
       inkscape:connector-curvature="0"
       style="fill:#aaffaa;stroke:#000000;stroke-miterlimit:10"
       d="m 461.5,461 v 10.5 l 19,-15.5 -19,-15.5 V 451 h -48.97378 v 10 z"
       id="arrow_bus_sar"
       stroke-miterlimit="10"
       sodipodi:nodetypes="cccccccc" />
    <path
       inkscape:connector-curvature="0"
       style="fill:#aaffaa;stroke:#000000;stroke-miterlimit:10"
       d="m 651.5,381 v 10.5 l 19,-15.5 -19,-15.5 V 371 h -39.53575 l -0.0458,10 z"
       id="arrow_sir_mem"
       stroke-miterlimit="10"
       sodipodi:nodetypes="cccccccc" />
    <path
       inkscape:connector-curvature="0"
       style="fill:#aaffaa;stroke:#000000;stroke-miterlimit:10"
       d="m 630.5,381 v 10.5 l -19,-15.5 19,-15.5 V 371 h 39.53575 l 0.0458,10 z"
       id="arrow_mem_sir"
       stroke-miterlimit="10"
       sodipodi:nodetypes="cccccccc" />
    <path
       style="fill:#aaffaa;stroke:#000000;stroke-miterlimit:1.41999996"
       inkscape:connector-curvature="0"
       stroke-miterlimit="1.42"
       id="arrow_iobus_sir"
       d="m 574,410.5 h -10.5 l 15.5,-19 15.5,19 H 584 v 5.5 h 52 v 140 h -52 v 75.65067 l -10,0.0648 V 546 h 52 V 426 h -52 z"
       inkscape:label="arrow_iobus_sir"
       sodipodi:nodetypes="cccccccccccccccc" />
    <text
       xml:space="preserve"
       style="font-style:normal;font-variant:normal;font-weight:normal;font-stretch:normal;font-size:13.33333302px;line-height:1.25;font-family:'Courier New';-inkscape-font-specification:'Courier New, Normal';font-variant-ligatures:normal;font-variant-caps:normal;font-variant-numeric:normal;font-feature-settings:normal;text-align:center;letter-spacing:0px;word-spacing:0px;writing-mode:lr-tb;text-anchor:middle;opacity:1;fill:#000000;fill-opacity:1;stroke:none"
       x="212.00319"
       y="642.23883"
       id="text116"><tspan
         sodipodi:role="line"
         id="tspan140"
         x="212.00319"
         y="642.23883"
         style="font-style:normal;font-variant:normal;font-weight:normal;font-stretch:normal;font-size:14.66666698px;font-family:'Courier New';-inkscape-font-specification:'Courier New, Normal';font-variant-ligatures:normal;font-variant-caps:normal;font-variant-numeric:normal;font-feature-settings:normal;text-align:center;writing-mode:lr-tb;text-anchor:middle">Magic IO addresses</tspan><tspan
         sodipodi:role="line"
         id="tspan142"
         x="212.00319"
         y="660.57214"
         style="font-style:normal;font-variant:normal;font-weight:normal;font-stretch:normal;font-size:14.66666698px;font-family:'Courier New';-inkscape-font-specification:'Courier New, Normal';font-variant-ligatures:normal;font-variant-caps:normal;font-variant-numeric:normal;font-feature-settings:normal;text-align:center;writing-mode:lr-tb;text-anchor:middle">Input : 0xC000001 (char) and 0xC000002 (int)</tspan><tspan
         sodipodi:role="line"
         id="tspan144"
         x="212.00319"
         y="678.90552"
         style="font-style:normal;font-variant:normal;font-weight:normal;font-stretch:normal;font-size:14.66666698px;font-family:'Courier New';-inkscape-font-specification:'Courier New, Normal';font-variant-ligatures:normal;font-variant-caps:normal;font-variant-numeric:normal;font-feature-settings:normal;text-align:center;writing-mode:lr-tb;text-anchor:middle">Output: 0xC000003 (char) and 0xC000004 (int)</tspan></text>
    <path
       style="fill:#aaffaa;stroke:#000000;stroke-miterlimit:1.41999996"
       inkscape:connector-curvature="0"
       stroke-miterlimit="1.42"
       id="arrow_sir_iobus"
       d="m 574,390.6733 h 10 V 416 h 52 v 140 h -52 v 55.5 h 10.5 l -15.5,19 -15.5,-19 H 574 V 546 h 52 V 426 h -52 z"
       inkscape:label="arrow_sir_iobus"
       sodipodi:nodetypes="cccccccccccccccc" />
    <text
       xml:space="preserve"
       style="font-style:normal;font-variant:normal;font-weight:normal;font-stretch:normal;font-size:13.33333302px;line-height:1.25;font-family:'Courier New';-inkscape-font-specification:'Courier New, Normal';font-variant-ligatures:normal;font-variant-caps:normal;font-variant-numeric:normal;font-feature-settings:normal;text-align:center;letter-spacing:0px;word-spacing:0px;writing-mode:lr-tb;text-anchor:middle;opacity:1;fill:#000000;fill-opacity:1;stroke:none"
       x="546.68402"
       y="685.7522"
       id="text116-6"><tspan
         sodipodi:role="line"
         id="tspan144-9"
         x="546.68402"
         y="685.7522"
         style="font-style:normal;font-variant:normal;font-weight:normal;font-stretch:normal;font-size:14.66666698px;font-family:'Courier New';-inkscape-font-specification:'Courier New, Normal';font-variant-ligatures:normal;font-variant-caps:normal;font-variant-numeric:normal;font-feature-settings:normal;text-align:center;writing-mode:lr-tb;text-anchor:middle">&gt; 0x0C000000</tspan></text>
  </g>
</svg>
